<?xml version="1.0" encoding="UTF-8"?>
<svg width="210" height="210" xmlns="http://www.w3.org/2000/svg" xmlns:svg="http://www.w3.org/2000/svg">

 <metadata id="metadata5642">image/svg+xml</metadata>
 <g>
  <title>Layer 1</title>
  <g id="layer1">
   <path opacity="0.601" fill="#ffffff" stroke="#ffffff" stroke-width="5" stroke-miterlimit="4" id="path5598" d="m99.43335,201.291565c-5.334396,-2.736771 -79.564659,-86.325455 -85.468247,-96.243469c-18.416011,-30.938873 -10.093271,-72.534897 18.34237,-91.672988c11.59,-7.800443 25.294899,-10.700964 38.407509,-8.128615c12.383713,2.429366 18.692535,5.813361 28.84549,15.472414c2.696159,2.564987 5.245476,4.663624 5.665184,4.663624c0.419693,0 2.103584,-1.583542 3.741974,-3.518957c6.791092,-8.022321 17.442947,-13.937315 29.824028,-16.56132c20.492371,-4.343102 42.396912,5.355233 55.129944,24.409028c14.987885,22.427959 15.51445,53.131325 1.312943,76.553947c-1.555298,2.565155 -20.416901,24.53714 -41.914658,48.82663c-45.208649,51.079453 -44.896606,50.811935 -53.886536,46.199707zm40.97583,-68.609131c21.3078,-24.175667 35.634872,-41.198944 37.150742,-44.142105c11.382233,-22.099182 1.588562,-49.383186 -20.37413,-56.760063c-5.762878,-1.935642 -11.303436,-1.914322 -17.205261,0.066168c-10.080872,3.382933 -13.116081,6.116987 -29.462135,26.539068c-2.687149,3.35722 -5.244736,6.104046 -5.683495,6.104046c-0.847221,0 -1.431984,-0.658932 -7.307953,-8.23473c-13.772079,-17.756165 -17.499008,-21.07074 -27.444939,-24.408381c-13.585648,-4.559042 -28.72028,2.049322 -37.154701,16.223196c-7.145298,12.007526 -7.338018,28.47525 -0.47966,40.985283c2.39291,4.364784 71.07618,82.978973 72.496681,82.978973c0.42984,0 16.389023,-17.70816 35.464851,-39.351471l0,0.000015z"/>
  </g>
 </g>
</svg>